<?xml version="1.0" encoding="iso-8859-1"?>
<!-- Uploaded to: SVG Repo, www.svgrepo.com, Generator: SVG Repo Mixer Tools -->
<svg height="800px" width="800px" version="1.1" id="Layer_1" xmlns="http://www.w3.org/2000/svg" xmlns:xlink="http://www.w3.org/1999/xlink" 
	 viewBox="0 0 390 390" xml:space="preserve">
<g id="XMLID_916_">
	<path id="XMLID_917_" style="fill:#78B9EB;" d="M285,70c-60-30-90-70-90-70s-30,40-90,70s-80,50-60,80
		c10.714,16.07,52.989,49.355,89.941,76.803c-1.964,19.746,5.887,40.042,22.654,53.197l18.349-23.388L195,390l19.056-133.388
		L232.404,280c16.768-13.156,24.618-33.451,22.654-53.197C292.011,199.355,334.286,166.07,345,150C365,120,345,100,285,70z"/>
	<path id="XMLID_918_" style="fill:#006DF0;" d="M195,0c0,0,30,40,90,70s80,50,60,80c-10.714,16.07-52.989,49.355-89.941,76.803
		c1.964,19.746-5.887,40.042-22.654,53.197l-18.349-23.388L195,390V0z"/>
	<g id="XMLID_919_">
		<circle id="XMLID_920_" style="fill:#001B3C;" cx="165" cy="80" r="10"/>
	</g>
	<g id="XMLID_921_">
		<circle id="XMLID_922_" style="fill:#001B3C;" cx="225" cy="80" r="10"/>
	</g>
</g>
</svg>